# xmcd
#
# Track frame offsets: 
#        150
#        20733
#        34421
#        46229
#        67631
#        87179
#        106559
#        126180
#        149638
#        170589
#        187506
#        207356
#
# Disc length: 3193 seconds
#
# Revision: 0
# Processed by: cddbd v1.5.1PL2 Copyright (c) Steve Scherf et al.
# Submitted via: ExactAudioCopy v0.95b3
#
DISCID=9c0c770c
DTITLE=Houston Marchman - Live And Still Standing
DYEAR=2005
DGENRE=Country
TTITLE0=$2 Pistol
TTITLE1=Policeman
TTITLE2=Still In San Antone
TTITLE3=Hey Senorita
TTITLE4=Hank´s Angel
TTITLE5=Not Tonight
TTITLE6=Wrong Side Of Del Rio
TTITLE7=Suzanne
TTITLE8=Desperate Man
TTITLE9=Divorcees
TTITLE10=Caleb
TTITLE11=Viet Nashville
EXTD=
EXTT0=
EXTT1=
EXTT2=
EXTT3=
EXTT4=
EXTT5=
EXTT6=
EXTT7=
EXTT8=
EXTT9=
EXTT10=
EXTT11=
PLAYORDER=
